{
  "source": "C:\\Users\\Peter\\Desktop\\stuff\\MIUN\\quantitative_research\\video_compression\\videos\\BVI-HD\\BVI-HD_CDVL_videos\\ORIG\\Music_1920x1080_30fps.mp4",
  "output": "C:\\Users\\Peter\\Desktop\\stuff\\MIUN\\quantitative_research\\video_compression\\compressed_videos\\BVI-HD\\vp9\\2.5\\Music_1920x1080_30fps_vp9.webm",
  "codec": "vp9",
  "ok": "Input #0, mov,mp4,m4a,3gp,3g2,mj2, from 'C:\\Users\\Peter\\Desktop\\stuff\\MIUN\\quantitative_research\\video_compression\\videos\\BVI-HD\\BVI-HD_CDVL_videos\\ORIG\\Music_1920x1080_30fps.mp4':\n  Metadata:\n    major_brand     : isom\n    minor_version   : 512\n    compatible_brands: isomiso2avc1mp41\n    encoder         : Lavf54.28.101\n  Duration: 00:00:05.00, start: 0.000000, bitrate: 192710 kb/s\n  Stream #0:0[0x1](und): Video: h264 (High 4:4:4 Predictive) (avc1 / 0x31637661), yuv420p(progressive), 1920x1080, 192707 kb/s, 30 fps, 30 tbr, 30 tbn (default)\n    Metadata:\n      handler_name    : VideoHandler\n      vendor_id       : [0][0][0][0]\n[out#0/webm @ 000001829aaa1280] Codec AVOption b:a (set bitrate (in bits/s)) has not been used for any stream. The most likely reason is either wrong type (e.g. a video option with no video streams) or that it is a private option of some decoder which was not actually used for any stream.\nStream mapping:\n  Stream #0:0 -> #0:0 (h264 (native) -> vp9 (libvpx-vp9))\nPress [q] to stop, [?] for help\n[libvpx-vp9 @ 000001829affd780] v1.15.2-100-g40561f514\nOutput #0, webm, to 'C:\\Users\\Peter\\Desktop\\stuff\\MIUN\\quantitative_research\\video_compression\\compressed_videos\\BVI-HD\\vp9\\2.5\\Music_1920x1080_30fps_vp9.webm':\n  Metadata:\n    major_brand     : isom\n    minor_version   : 512\n    compatible_brands: isomiso2avc1mp41\n    encoder         : Lavf62.3.100\n  Stream #0:0(und): Video: vp9, yuv420p(tv, progressive), 1920x1080, q=2-31, 2500 kb/s, 30 fps, 1k tbn (default)\n    Metadata:\n      encoder         : Lavc62.11.100 libvpx-vp9\n      handler_name    : VideoHandler\n      vendor_id       : [0][0][0][0]\n    Side data:\n      cpb: bitrate max/min/avg: 0/0/0 buffer size: 2500000 vbv_delay: N/A\nframe=    0 fps=0.0 q=0.0 size=       0KiB time=N/A bitrate=N/A speed=N/A elapsed=0:00:00.50    \nframe=   10 fps=9.3 q=40.0 size=       1KiB time=00:00:00.33 bitrate=  15.2kbits/s speed=0.31x elapsed=0:00:01.07    \nframe=   17 fps= 11 q=39.0 size=       1KiB time=00:00:00.56 bitrate=   9.0kbits/s speed=0.357x elapsed=0:00:01.58    \nframe=   24 fps= 11 q=38.0 size=       1KiB time=00:00:00.80 bitrate=   6.3kbits/s speed=0.381x elapsed=0:00:02.10    \nframe=   30 fps= 11 q=42.0 size=       1KiB time=00:00:01.00 bitrate=   5.1kbits/s speed=0.381x elapsed=0:00:02.62    \nframe=   36 fps= 11 q=55.0 size=       1KiB time=00:00:01.20 bitrate=   4.2kbits/s speed=0.38x elapsed=0:00:03.15    \nframe=   41 fps= 11 q=31.0 size=       1KiB time=00:00:01.36 bitrate=   3.7kbits/s speed=0.37x elapsed=0:00:03.68    \nframe=   47 fps= 11 q=44.0 size=       1KiB time=00:00:01.56 bitrate=   3.2kbits/s speed=0.372x elapsed=0:00:04.20    \nframe=   52 fps= 11 q=45.0 size=       1KiB time=00:00:01.73 bitrate=   2.9kbits/s speed=0.366x elapsed=0:00:04.73    \nframe=   58 fps= 11 q=44.0 size=       1KiB time=00:00:01.93 bitrate=   2.6kbits/s speed=0.369x elapsed=0:00:05.23    \nframe=   63 fps= 11 q=44.0 size=       1KiB time=00:00:02.10 bitrate=   2.4kbits/s speed=0.365x elapsed=0:00:05.75    \nframe=   69 fps= 11 q=45.0 size=       1KiB time=00:00:02.30 bitrate=   2.2kbits/s speed=0.366x elapsed=0:00:06.27    \nframe=   74 fps= 11 q=43.0 size=       1KiB time=00:00:02.46 bitrate=   2.1kbits/s speed=0.363x elapsed=0:00:06.80    \nframe=   80 fps= 11 q=43.0 size=       1KiB time=00:00:02.66 bitrate=   1.9kbits/s speed=0.364x elapsed=0:00:07.32    \nframe=   85 fps= 11 q=43.0 size=       1KiB time=00:00:02.83 bitrate=   1.8kbits/s speed=0.361x elapsed=0:00:07.85    \nframe=   90 fps= 11 q=45.0 size=       1KiB time=00:00:03.00 bitrate=   1.7kbits/s speed=0.358x elapsed=0:00:08.37    \nframe=   96 fps= 11 q=43.0 size=       1KiB time=00:00:03.20 bitrate=   1.6kbits/s speed=0.36x elapsed=0:00:08.89    \nframe=  101 fps= 11 q=26.0 size=       1KiB time=00:00:03.36 bitrate=   1.5kbits/s speed=0.357x elapsed=0:00:09.41    \nframe=  107 fps= 11 q=46.0 size=       1KiB time=00:00:03.56 bitrate=   1.4kbits/s speed=0.359x elapsed=0:00:09.94    \nframe=  112 fps= 11 q=45.0 size=       1KiB time=00:00:03.73 bitrate=   1.4kbits/s speed=0.356x elapsed=0:00:10.48    \nframe=  118 fps= 11 q=44.0 size=       1KiB time=00:00:03.93 bitrate=   1.3kbits/s speed=0.357x elapsed=0:00:11.00    \nframe=  124 fps= 11 q=44.0 size=       1KiB time=00:00:04.13 bitrate=   1.2kbits/s speed=0.358x elapsed=0:00:11.54    \nframe=  126 fps= 10 q=45.0 size=       1KiB time=00:00:04.20 bitrate=   1.2kbits/s speed=0.348x elapsed=0:00:12.07    \nframe=  126 fps= 10 q=45.0 size=       1KiB time=00:00:04.20 bitrate=   1.2kbits/s speed=0.333x elapsed=0:00:12.59    \nframe=  126 fps=9.6 q=45.0 size=       1KiB time=00:00:04.20 bitrate=   1.2kbits/s speed=0.32x elapsed=0:00:13.11    \n[out#0/webm @ 000001829aaa1280] video:1185KiB audio:0KiB subtitle:0KiB other streams:0KiB global headers:0KiB muxing overhead: 0.144958%\nframe=  150 fps= 11 q=37.0 Lsize=    1187KiB time=00:00:05.00 bitrate=1944.3kbits/s speed=0.367x elapsed=0:00:13.62    \n",
  "seconds": 13.876114845275879,
  "probe_out": {}
}